<?xml version="1.0" encoding="UTF-8" standalone="no"?>
<!DOCTYPE svg PUBLIC "-//W3C//DTD SVG 1.1//EN" "http://www.w3.org/Graphics/SVG/1.1/DTD/svg11.dtd">
<svg width="100%" height="100%" viewBox="0 0 337 338" version="1.1" xmlns="http://www.w3.org/2000/svg" xmlns:xlink="http://www.w3.org/1999/xlink" xml:space="preserve" xmlns:serif="http://www.serif.com/" style="fill-rule:evenodd;clip-rule:evenodd;stroke-linejoin:round;stroke-miterlimit:2;">
    <g id="Artboard1" transform="matrix(1.00847,0,0,1.00904,-349.426,-115.641)">
        <rect x="346.492" y="114.604" width="333.914" height="334.206" style="fill:none;"/>
        <g id="_-e9edeeff" serif:id="#e9edeeff" transform="matrix(0.991602,0,0,0.991036,6.20169,4.62201)">
            <path d="M401.95,176.64C425.63,176.33 449.32,176.59 473,176.53C486.8,176.54 500.23,183.57 508.47,194.57C515.82,204.7 519.45,217.62 517.62,230.08C515.31,251.58 495.84,270.09 474.07,270.48C465.05,270.7 456.01,270.48 446.99,270.5C436.7,270.47 426.88,277.7 423.71,287.45C422.04,292.4 423.25,297.75 421.88,302.75C419.7,311.58 410.96,318.6 401.7,317.77C402.06,305.17 400.15,292.02 404.92,279.98C409.92,266.4 421.33,255.05 435.46,251.33C443.06,248.89 451.12,250.04 458.95,249.78C465.14,249.58 471.39,250.22 477.54,249.26C483.76,247.55 489.71,243.9 493.2,238.35C498.07,231.34 498.63,221.98 495.94,214.03C492.57,204.56 483.24,197.12 473,197.24C456.66,197.11 440.31,197.37 423.96,197.16C412.88,197.16 402.21,187.99 401.95,176.64Z" style="fill:rgb(233,237,238);fill-rule:nonzero;"/>
            <path d="M503.98,176.69C535.65,176.33 567.33,176.59 599.01,176.5C607.58,176.34 615.87,181.55 619.81,189.08C621.7,193.1 622.31,197.61 622.36,202.02C622.35,232.66 622.37,263.31 622.38,293.95C622.2,298.88 621.2,304.05 618.21,308.1C613.85,314.13 606.52,318.01 599.03,317.75C545.69,317.67 492.34,317.88 439,317.67C438.42,309.35 445.68,301.61 453.94,301.43C500.69,301.31 547.45,301.63 594.2,301.27C580.34,289.27 566.52,277.22 552.97,264.87C556.75,261.11 560.84,257.7 564.83,254.16C578.64,266.34 592.3,278.69 606.21,290.75C606.35,261.63 606.21,232.5 606.29,203.38C592.37,216.1 578.17,228.49 563.99,240.91C555.16,248.48 546.77,256.58 537.47,263.59C532.01,267.25 525.71,270.11 519.04,270.26C514.62,270.48 510.23,269.76 505.87,269.16C509.71,265.66 513.87,262.39 516.72,257.98C518.19,256.09 519.15,253.38 521.72,252.75C529,250.52 534.52,245.02 540.23,240.28C558.44,224.55 576.32,208.44 594.54,192.71C572.69,192.75 550.84,192.8 528.99,192.71C525.78,192.63 522.53,193.06 519.36,192.5C514.72,186.77 510.47,180.54 503.98,176.69Z" style="fill:rgb(233,237,238);fill-rule:nonzero;"/>
            <path d="M404.42,341.43C408.18,338.29 414.99,340.11 416.07,345.08C417.96,350.08 413.35,355.97 407.99,354.79C401.66,354.21 399.31,345.15 404.42,341.43Z" style="fill:rgb(233,237,238);fill-rule:nonzero;"/>
            <path d="M436.33,341.49C439.07,340.34 442.12,340.85 445.01,340.74C501.69,340.74 558.37,340.75 615.05,340.74C620.01,340.16 624.28,346.1 621.6,350.49C619.6,354.29 614.68,353.75 611.07,353.74C555.69,353.64 500.31,353.72 444.94,353.71C441.75,353.59 438.3,354.24 435.36,352.68C431.26,350.18 431.74,343.17 436.33,341.49Z" style="fill:rgb(233,237,238);fill-rule:nonzero;"/>
            <path d="M406.08,369.29C411.05,367.26 417.42,371.36 416.5,376.95C416.45,382.28 409.76,385.66 405.39,382.71C400.2,379.98 400.51,371.37 406.08,369.29Z" style="fill:rgb(233,237,238);fill-rule:nonzero;"/>
            <path d="M436.37,370.4C439.13,369.32 442.19,369.89 445.09,369.79C488.72,369.79 532.35,369.81 575.99,369.78C579.33,369.79 583.51,369.25 585.73,372.39C589.03,376.49 585.28,383.16 580.03,382.55C533.03,382.56 486.02,382.57 439.02,382.56C432.23,383.11 429.77,372.59 436.37,370.4Z" style="fill:rgb(233,237,238);fill-rule:nonzero;"/>
        </g>
        <g id="_-2e8be9ff" serif:id="#2e8be9ff" transform="matrix(0.991602,0,0,0.991036,6.20169,4.62201)">
            <path d="M406.54,113.86C418.98,112.23 431.53,112.69 444.04,112.63C491.68,112.63 539.32,112.63 586.95,112.64C602.22,112.7 618.02,112.06 632.59,117.43C650.55,123.53 665.56,137.75 672.57,155.39C679.18,170.68 678.57,187.67 678.66,203.98C678.67,261.67 678.67,319.35 678.68,377.04C678.81,394.56 672.07,412.22 659.73,424.75C651.27,434.05 639.95,440.32 628.06,444.09C616.98,447.23 605.41,446.27 594.06,446.4C538.04,446.4 482.03,446.42 426.01,446.39C413.99,446.53 401.52,446.81 390.23,442.03C367.9,433.86 350.61,413.34 346.47,389.91C344.73,380.36 345.48,370.62 345.31,360.97C345.33,306.32 345.25,251.67 345.31,197.02C345.4,182.24 345.92,166.86 352.43,153.28C358.05,140.27 368.23,129.52 380.4,122.4C388.49,118 397.41,115.11 406.54,113.86M401.95,176.64C402.21,187.99 412.88,197.16 423.96,197.16C440.31,197.37 456.66,197.11 473,197.24C483.24,197.12 492.57,204.56 495.94,214.03C498.63,221.98 498.07,231.34 493.2,238.35C489.71,243.9 483.76,247.55 477.54,249.26C471.39,250.22 465.14,249.58 458.95,249.78C451.12,250.04 443.06,248.89 435.46,251.33C421.33,255.05 409.92,266.4 404.92,279.98C400.15,292.02 402.06,305.17 401.7,317.77C410.96,318.6 419.7,311.58 421.88,302.75C423.25,297.75 422.04,292.4 423.71,287.45C426.88,277.7 436.7,270.47 446.99,270.5C456.01,270.48 465.05,270.7 474.07,270.48C495.84,270.09 515.31,251.58 517.62,230.08C519.45,217.62 515.82,204.7 508.47,194.57C500.23,183.57 486.8,176.54 473,176.53C449.32,176.59 425.63,176.33 401.95,176.64M503.98,176.69C510.47,180.54 514.72,186.77 519.36,192.5C522.53,193.06 525.78,192.63 528.99,192.71C550.84,192.8 572.69,192.75 594.54,192.71C576.32,208.44 558.44,224.55 540.23,240.28C534.52,245.02 529,250.52 521.72,252.75C519.15,253.38 518.19,256.09 516.72,257.98C513.87,262.39 509.71,265.66 505.87,269.16C510.23,269.76 514.62,270.48 519.04,270.26C525.71,270.11 532.01,267.25 537.47,263.59C546.77,256.58 555.16,248.48 563.99,240.91C578.17,228.49 592.37,216.1 606.29,203.38C606.21,232.5 606.35,261.63 606.21,290.75C592.3,278.69 578.64,266.34 564.83,254.16C560.84,257.7 556.75,261.11 552.97,264.87C566.52,277.22 580.34,289.27 594.2,301.27C547.45,301.63 500.69,301.31 453.94,301.43C445.68,301.61 438.42,309.35 439,317.67C492.34,317.88 545.69,317.67 599.03,317.75C606.52,318.01 613.85,314.13 618.21,308.1C621.2,304.05 622.2,298.88 622.38,293.95C622.37,263.31 622.35,232.66 622.36,202.02C622.31,197.61 621.7,193.1 619.81,189.08C615.87,181.55 607.58,176.34 599.01,176.5C567.33,176.59 535.65,176.33 503.98,176.69M404.42,341.43C399.31,345.15 401.66,354.21 407.99,354.79C413.35,355.97 417.96,350.08 416.07,345.08C414.99,340.11 408.18,338.29 404.42,341.43M436.33,341.49C431.74,343.17 431.26,350.18 435.36,352.68C438.3,354.24 441.75,353.59 444.94,353.71C500.31,353.72 555.69,353.64 611.07,353.74C614.68,353.75 619.6,354.29 621.6,350.49C624.28,346.1 620.01,340.16 615.05,340.74C558.37,340.75 501.69,340.74 445.01,340.74C442.12,340.85 439.07,340.34 436.33,341.49M406.08,369.29C400.51,371.37 400.2,379.98 405.39,382.71C409.76,385.66 416.45,382.28 416.5,376.95C417.42,371.36 411.05,367.26 406.08,369.29M436.37,370.4C429.77,372.59 432.23,383.11 439.02,382.56C486.02,382.57 533.03,382.56 580.03,382.55C585.28,383.16 589.03,376.49 585.73,372.39C583.51,369.25 579.33,369.79 575.99,369.78C532.35,369.81 488.72,369.79 445.09,369.79C442.19,369.89 439.13,369.32 436.37,370.4Z" style="fill:rgb(46,139,233);fill-rule:nonzero;"/>
        </g>
    </g>
</svg>
